<?xml version="1.0" standalone="no"?>
<!DOCTYPE svg PUBLIC "-//W3C//DTD SVG 20010904//EN"
 "http://www.w3.org/TR/2001/REC-SVG-20010904/DTD/svg10.dtd">
<svg version="1.0" xmlns="http://www.w3.org/2000/svg"
 width="801.000000pt" height="801.000000pt" viewBox="0 0 801.000000 801.000000"
 preserveAspectRatio="xMidYMid meet">
<metadata>
Created by potrace 1.11, written by Peter Selinger 2001-2013
</metadata>
<g transform="translate(0.000000,801.000000) scale(0.100000,-0.100000)"
fill="#000000" stroke="none">
<path d="M3904 6758 c-48 -84 -103 -180 -122 -213 -19 -33 -45 -78 -57 -100
-12 -22 -77 -134 -144 -248 -66 -115 -121 -211 -121 -213 0 -3 -17 -33 -39
-67 -31 -50 -153 -260 -259 -448 -10 -19 -39 -68 -64 -109 -24 -41 -47 -82
-51 -90 -4 -8 -16 -29 -26 -47 -25 -40 -185 -316 -235 -403 -20 -36 -41 -72
-46 -80 -11 -17 -190 -329 -409 -710 -84 -146 -168 -290 -186 -320 -18 -30
-44 -75 -57 -100 -14 -25 -74 -128 -133 -230 -111 -193 -396 -686 -429 -743
-36 -63 -440 -764 -509 -882 -38 -66 -95 -165 -127 -220 -32 -55 -99 -170
-149 -256 -50 -87 -94 -164 -97 -173 -6 -15 275 -16 3356 -16 2937 0 3361 2
3357 15 -5 12 -50 90 -195 340 -19 33 -46 80 -60 105 -24 43 -125 217 -407
705 -73 127 -242 419 -376 650 -133 231 -282 490 -332 575 -49 85 -130 225
-179 310 -49 85 -93 162 -98 170 -28 44 -100 172 -100 176 0 2 -17 32 -38 66
-21 35 -41 70 -45 78 -4 8 -16 29 -26 45 -11 17 -28 46 -39 65 -16 28 -409
710 -482 835 -10 17 -37 64 -60 105 -24 41 -108 188 -188 325 -80 138 -156
270 -170 295 -14 25 -71 124 -127 220 -56 96 -175 302 -264 458 -90 155 -166
282 -171 282 -4 0 -47 -69 -96 -152z m156 -440 c29 -51 64 -111 76 -133 12
-22 61 -107 109 -190 48 -82 97 -166 107 -185 27 -47 385 -667 468 -810 37
-63 138 -239 225 -390 86 -151 170 -295 185 -320 15 -25 39 -65 53 -90 13 -25
66 -117 117 -205 51 -88 103 -179 117 -203 13 -23 52 -91 87 -151 34 -59 66
-114 69 -122 4 -8 16 -27 26 -44 19 -31 107 -182 146 -250 12 -22 71 -123 130
-225 59 -102 117 -203 129 -225 13 -22 74 -128 136 -235 62 -107 121 -208 130
-225 10 -16 68 -118 130 -225 62 -107 123 -213 135 -235 13 -22 84 -146 159
-275 l136 -235 -1465 -3 c-806 -1 -2124 -1 -2930 0 l-1465 3 76 130 c41 72 88
153 103 180 16 28 70 122 121 210 389 671 463 800 482 833 11 20 102 179 203
352 177 307 239 413 663 1150 112 195 215 371 228 391 13 19 24 38 24 41 0 5
79 144 130 228 5 8 80 138 167 289 168 291 165 285 233 404 25 43 50 86 55 95
6 10 53 91 105 182 52 91 100 172 105 181 6 9 23 40 40 70 16 30 34 62 40 71
5 9 41 71 79 137 39 67 72 121 75 121 4 0 31 -42 61 -92z"/>
</g>
</svg>
