<?xml version="1.0" encoding="utf-8"?>
<!-- Generator: Adobe Illustrator 16.0.0, SVG Export Plug-In . SVG Version: 6.00 Build 0)  -->
<!DOCTYPE svg PUBLIC "-//W3C//DTD SVG 1.1//EN" "http://www.w3.org/Graphics/SVG/1.1/DTD/svg11.dtd">
<svg version="1.1" xmlns="http://www.w3.org/2000/svg" xmlns:xlink="http://www.w3.org/1999/xlink" x="0px" y="0px" width="800px"
	 height="800px" viewBox="0 0 800 800" enable-background="new 0 0 800 800" xml:space="preserve">
<g id="Layer_2">
</g>
<g id="Layer_1">
	<g id="colordots_6_" display="none">
		
			<circle display="inline" fill="#161616" stroke="#FFFFFF" stroke-width="6" stroke-miterlimit="10" cx="400.054" cy="87.911" r="27.693"/>
		
			<circle display="inline" fill="#161616" stroke="#8CC63F" stroke-width="6" stroke-miterlimit="10" cx="755.804" cy="712.8" r="27.694"/>
		
			<circle display="inline" fill="#161616" stroke="#0071BC" stroke-width="6" stroke-miterlimit="10" cx="43.195" cy="712.8" r="27.693"/>
	</g>
	<polygon display="none" fill="#FFFFFF" points="424.662,88 399.977,130.758 375.291,88 	"/>
	<polygon display="none" fill="#FFFFFF" points="738.095,737.195 725.316,689.505 773.006,702.285 	"/>
	<g>
		<polygon fill="#141414" points="114.058,667 685.885,667 399.972,171.783 		"/>
		<path fill="#141414" d="M0,0v800h800V0H0z M424.662,88l-24.686,42.758L375.291,88H424.662z M60.73,737.195l-34.911-34.91
			l47.689-12.78L60.73,737.195z M91.541,680l308.431-534.217L708.402,680H91.541z M738.095,737.195l-12.778-47.69l47.689,12.78
			L738.095,737.195z"/>
	</g>
</g>
</svg>
